<?xml version="1.0" standalone="no"?>
<!DOCTYPE svg PUBLIC "-//W3C//DTD SVG 20010904//EN"
 "http://www.w3.org/TR/2001/REC-SVG-20010904/DTD/svg10.dtd">
<svg version="1.0" xmlns="http://www.w3.org/2000/svg"
 width="300.000000pt" height="300.000000pt" viewBox="0 0 300.000000 300.000000"
 preserveAspectRatio="xMidYMid meet">
<metadata>
Created by potrace 1.10, written by Peter Selinger 2001-2011
</metadata>
<g transform="translate(0.000000,300.000000) scale(0.100000,-0.100000)"
fill="#000000" stroke="none">
<path d="M1116 2513 c-101 -106 -128 -292 -61 -424 14 -27 30 -49 35 -49 14 0
13 2 -17 62 -25 47 -28 64 -28 153 0 89 3 106 27 156 16 31 44 72 63 92 19 20
31 38 26 42 -5 3 -26 -12 -45 -32z"/>
<path d="M2275 2489 c-67 -55 -76 -69 -46 -69 32 0 34 -18 6 -51 -14 -18 -24
-34 -21 -36 5 -5 114 79 115 89 1 4 -10 10 -24 14 -32 8 -31 12 6 57 17 21 30
40 28 41 -2 2 -31 -18 -64 -45z"/>
<path d="M1375 2460 c-10 -11 -28 -20 -40 -20 -33 0 -75 -37 -75 -67 0 -15
-12 -36 -31 -54 -29 -27 -31 -31 -24 -81 7 -52 35 -98 61 -98 6 0 14 -9 17
-20 3 -11 18 -25 34 -31 15 -6 40 -17 55 -25 37 -20 75 -17 98 6 18 18 20 33
20 195 0 162 -2 177 -20 195 -11 11 -33 20 -48 20 -16 0 -37 -9 -47 -20z m86
-16 c9 -11 13 -54 13 -150 1 -74 -1 -134 -4 -134 -25 0 -41 62 -20 75 6 3 10
11 10 17 0 6 -9 3 -20 -7 -27 -25 -25 -61 5 -87 27 -23 32 -57 13 -76 -17 -17
-63 -15 -78 3 -7 8 -23 15 -35 15 -27 0 -58 31 -37 37 22 8 12 20 -17 20 -43
0 -58 17 -65 74 -6 41 -4 55 10 70 9 11 23 19 30 19 8 0 12 12 12 30 -2 46 29
73 74 67 23 -3 36 -1 32 4 -21 34 50 55 77 23z"/>
<path d="M1414 2395 c-4 -9 -1 -27 6 -40 23 -43 -15 -84 -47 -52 -13 13 -14
19 -4 31 19 22 6 48 -21 44 -35 -5 -32 -31 9 -77 l38 -43 27 29 c34 35 44 115
15 121 -9 2 -20 -4 -23 -13z"/>
<path d="M1246 2253 c-4 -9 0 -23 9 -32 12 -13 19 -13 35 -3 29 18 54 15 78
-11 23 -25 29 -47 12 -47 -5 0 -10 -11 -10 -24 0 -28 28 -42 47 -23 14 14 8
47 -8 47 -5 0 -9 10 -9 23 0 31 -39 67 -73 67 -14 0 -29 5 -32 10 -10 16 -42
12 -49 -7z"/>
<path d="M1311 2196 c-9 -11 -6 -15 16 -19 34 -6 40 -2 23 18 -15 19 -24 19
-39 1z"/>
<path d="M1527 2462 c-15 -16 -17 -45 -17 -199 0 -162 2 -182 18 -196 22 -21
75 -22 91 -3 6 7 25 16 40 19 16 4 35 13 43 22 17 21 29 32 56 53 48 36 48
152 0 167 -12 4 -18 16 -18 36 0 37 -39 79 -73 79 -13 0 -32 9 -42 20 -23 25
-76 26 -98 2z m80 -13 c6 -6 9 -17 6 -25 -4 -10 4 -12 31 -7 47 7 76 -17 76
-64 0 -22 5 -33 15 -33 29 0 46 -43 36 -95 -11 -58 -28 -71 -83 -66 -10 1 -18
-3 -18 -8 0 -6 7 -11 15 -11 8 0 15 -4 15 -8 0 -16 -25 -32 -51 -32 -15 0 -29
-7 -33 -16 -10 -26 -68 -14 -85 18 -15 25 -14 28 12 48 32 25 37 79 10 101
-15 12 -16 12 -9 -6 17 -41 18 -56 6 -70 -7 -8 -16 -15 -21 -15 -5 0 -9 60 -9
134 0 109 3 138 16 150 18 19 55 21 71 5z"/>
<path d="M1539 2394 c-10 -12 -10 -20 -1 -35 7 -10 12 -27 12 -37 0 -10 13
-28 29 -40 l29 -21 21 23 c11 12 21 26 21 31 0 4 7 13 16 19 21 16 7 48 -20
44 -16 -2 -21 -10 -21 -35 0 -41 -18 -61 -40 -43 -18 15 -19 34 -3 59 9 15 9
23 -1 35 -8 9 -17 16 -21 16 -4 0 -13 -7 -21 -16z"/>
<path d="M1677 2313 c-11 -10 -8 -43 3 -43 6 0 10 4 10 9 0 5 3 16 6 25 6 16
-7 22 -19 9z"/>
<path d="M1700 2261 c0 -6 -12 -11 -27 -11 -28 0 -83 -44 -83 -67 0 -7 -6 -22
-12 -33 -10 -16 -10 -23 5 -37 16 -16 18 -16 34 0 15 14 15 21 5 37 -17 27
-15 44 6 63 21 20 63 22 79 6 18 -18 45 -2 41 23 -3 23 -48 40 -48 19z"/>
<path d="M1644 2189 c-9 -10 -12 -19 -6 -19 6 0 13 4 17 10 3 5 12 7 20 3 8
-3 15 -1 15 5 0 19 -28 20 -46 1z"/>
<path d="M1177 2443 c-76 -80 -89 -228 -30 -328 21 -36 24 -9 3 36 -39 87 -16
226 49 283 21 19 28 36 13 36 -5 0 -20 -12 -35 -27z"/>
<path d="M2100 2420 c-11 -11 -27 -20 -35 -20 -44 0 -78 -36 -100 -108 -3 -12
-22 -34 -41 -48 -19 -15 -34 -30 -34 -34 0 -5 20 -16 45 -26 34 -13 45 -22 45
-38 0 -44 55 -63 90 -31 15 13 21 13 58 -2 23 -9 45 -13 49 -10 3 4 1 23 -5
43 -9 29 -7 45 9 92 20 59 15 106 -15 132 -8 6 -12 19 -9 30 3 12 -2 22 -16
29 -17 9 -24 8 -41 -9z m42 -57 c32 -28 37 -64 17 -128 -14 -45 -17 -66 -9
-83 5 -13 10 -24 10 -26 0 -2 -54 17 -121 42 l-121 45 29 23 c16 12 35 41 43
63 26 80 98 110 152 64z m-107 -215 c27 -12 32 -24 13 -31 -19 -6 -48 11 -48
28 0 18 2 18 35 3z"/>
<path d="M2345 2364 c33 -82 27 -160 -17 -230 -33 -53 -28 -73 8 -31 26 31 54
115 53 161 -1 46 -22 109 -38 114 -10 3 -12 0 -6 -14z"/>
<path d="M2275 2323 c19 -48 16 -89 -9 -135 -19 -37 -22 -48 -11 -48 19 0 44
50 51 102 6 46 -8 98 -27 98 -7 0 -8 -7 -4 -17z"/>
<path d="M1330 1984 c-118 -15 -188 -27 -289 -51 l-113 -27 5 -236 c5 -272 16
-333 92 -487 78 -157 235 -303 405 -374 l69 -29 52 20 c104 42 193 102 284
194 75 75 99 107 138 186 76 153 89 217 94 483 3 126 1 232 -3 237 -12 11
-147 46 -259 66 -87 15 -400 27 -475 18z m430 -54 c42 -6 118 -21 170 -33 l95
-23 3 -159 c2 -88 -2 -198 -8 -245 -13 -102 -55 -229 -101 -307 -45 -75 -149
-186 -222 -235 -65 -44 -174 -98 -198 -98 -10 0 -59 21 -110 47 -78 39 -109
62 -184 137 -102 104 -145 170 -186 288 -37 111 -49 207 -49 403 l0 164 52 16
c70 20 201 44 301 55 97 10 331 5 437 -10z"/>
<path d="M1430 1896 c0 -23 6 -36 18 -41 13 -5 14 -4 5 6 -14 14 2 53 18 44
15 -10 11 -109 -6 -131 -19 -24 -19 -48 -1 -64 8 -6 17 -33 19 -58 l3 -47 2
51 c2 38 -2 53 -13 58 -8 3 -15 14 -15 24 0 11 7 25 15 32 11 9 15 33 15 86
l0 74 -30 0 c-27 0 -30 -3 -30 -34z"/>
<path d="M1510 1855 c0 -57 4 -75 18 -86 15 -13 16 -12 4 3 -16 20 -12 130 4
135 16 5 27 -28 14 -41 -16 -16 -12 -52 8 -67 14 -11 15 -11 5 1 -17 19 -16
59 1 66 7 3 13 17 12 31 -1 21 -6 26 -33 28 l-33 3 0 -73z"/>
<path d="M1288 1913 c-15 -4 -18 -15 -17 -56 1 -48 2 -49 8 -17 15 78 41 76
41 -2 0 -34 -6 -58 -17 -70 -13 -15 -14 -23 -5 -43 6 -14 16 -25 22 -25 7 0 4
7 -4 16 -20 19 -20 38 -2 53 9 8 16 37 18 82 3 73 2 74 -44 62z"/>
<path d="M1350 1851 c0 -49 4 -72 15 -81 18 -15 19 -42 3 -58 -9 -9 -9 -12 0
-12 20 0 25 47 8 72 -28 40 -15 151 15 121 8 -8 8 -17 -2 -34 -11 -21 -11 -23
3 -11 9 7 18 26 20 42 4 28 2 30 -29 30 l-33 0 0 -69z"/>
<path d="M1590 1893 c1 -25 2 -26 14 -11 7 10 24 16 42 15 28 -2 29 -4 32 -58
2 -41 -1 -59 -13 -69 -16 -13 -20 -46 -6 -54 4 -3 6 5 4 17 -3 14 2 29 11 36
12 10 16 32 16 82 l0 69 -50 0 c-48 0 -50 -1 -50 -27z"/>
<path d="M1205 1903 c-11 -2 -64 -13 -117 -25 l-98 -21 0 -54 0 -53 39 0 c25
0 43 6 52 18 11 14 11 15 -1 5 -16 -15 -70 -17 -70 -4 0 6 5 13 10 16 8 5 8
11 0 20 -14 17 27 43 74 47 20 1 36 6 36 11 0 5 9 7 20 4 11 -3 23 -1 26 5 3
5 12 7 20 4 7 -3 16 -1 19 4 13 21 25 8 25 -28 0 -29 -7 -45 -30 -67 -16 -16
-28 -30 -26 -33 3 -2 18 10 34 26 24 24 31 41 33 81 4 54 3 55 -46 44z"/>
<path d="M1709 1878 c4 -27 6 -29 9 -10 5 31 34 25 43 -8 6 -21 7 -20 8 13 1
36 0 37 -32 37 -32 0 -33 -1 -28 -32z"/>
<path d="M1790 1775 c0 -69 3 -125 8 -125 4 0 6 51 4 114 l-3 114 28 -2 c15
-1 34 -5 41 -10 7 -4 16 -6 19 -3 7 8 65 -13 84 -30 10 -8 15 -23 12 -34 -3
-12 0 -19 8 -19 33 0 -10 -19 -51 -23 -42 -3 -41 -4 13 -5 l58 -2 -3 53 -3 52
-85 22 c-140 36 -130 44 -130 -102z"/>
<path d="M1407 1833 c-13 -12 -7 -23 13 -23 11 0 20 7 20 15 0 15 -21 21 -33
8z"/>
<path d="M1764 1735 c0 -55 1 -76 3 -47 2 29 2 74 0 100 -2 26 -3 2 -3 -53z"/>
<path d="M1200 1735 l-64 -65 -73 0 -73 0 0 -60 c0 -56 2 -60 23 -60 14 0 39
16 62 40 l39 40 114 0 c87 0 117 3 128 15 9 8 11 15 5 15 -5 0 -13 -4 -16 -10
-4 -6 -55 -10 -120 -10 -113 0 -115 0 -144 -29 -21 -20 -37 -28 -51 -24 -23 6
-25 14 -7 32 10 11 9 14 -1 18 -28 10 3 23 56 23 31 0 62 4 67 8 18 14 129
132 124 132 -2 0 -34 -29 -69 -65z"/>
<path d="M1097 1754 c-14 -14 -7 -35 11 -32 9 2 17 10 17 17 0 16 -18 25 -28
15z"/>
<path d="M1146 1745 c14 -35 -41 -60 -66 -30 -7 9 -29 15 -51 15 -32 0 -39 -3
-39 -20 0 -18 7 -20 71 -20 60 0 75 3 90 21 17 20 16 49 -2 49 -4 0 -6 -7 -3
-15z"/>
<path d="M1324 1749 c-3 -6 -2 -15 4 -21 13 -13 32 -2 32 18 0 16 -26 19 -36
3z"/>
<path d="M1484 1749 c-10 -17 13 -36 27 -22 12 12 4 33 -11 33 -5 0 -12 -5
-16 -11z"/>
<path d="M1527 1720 c-10 -12 -17 -37 -17 -63 0 -40 5 -47 95 -137 52 -52 95
-102 95 -111 0 -9 16 -33 36 -53 35 -35 38 -36 108 -34 l71 1 -72 6 c-62 5
-76 10 -102 35 -17 17 -31 37 -31 47 0 9 -32 49 -72 89 -58 58 -69 73 -57 82
11 8 11 9 -4 4 -48 -15 -77 75 -41 129 20 30 15 33 -9 5z"/>
<path d="M1940 1721 c40 -5 45 -9 48 -33 l3 -27 -88 -4 -88 -3 98 -2 97 -2 0
40 0 40 -57 -2 -58 -1 45 -6z"/>
<path d="M1583 1665 c-7 -20 2 -29 21 -22 9 4 13 13 10 22 -8 19 -23 19 -31 0z"/>
<path d="M1403 1649 c32 -19 14 -69 -25 -69 -10 0 -21 7 -24 15 -5 12 -29 15
-125 15 -77 0 -119 -4 -119 -11 0 -5 5 -7 12 -3 7 4 8 3 4 -4 -4 -6 -13 -9
-21 -6 -12 5 -14 0 -9 -27 4 -19 13 -42 21 -51 14 -15 11 -16 -36 -14 -49 2
-78 14 -54 23 20 7 64 45 59 50 -3 3 -12 -2 -21 -11 -9 -9 -30 -16 -47 -16
-23 0 -29 -4 -24 -16 3 -9 6 -22 6 -30 0 -21 216 -20 239 0 18 17 129 37 163
31 12 -3 49 -31 81 -62 l59 -58 -5 -74 c-3 -57 -8 -77 -23 -88 -10 -7 -13 -13
-7 -13 14 0 30 20 34 43 4 15 9 13 38 -12 22 -18 31 -33 26 -41 -5 -9 -4 -11
4 -6 7 5 23 -5 40 -23 27 -28 29 -37 29 -106 0 -51 -4 -78 -14 -86 -8 -6 -14
-19 -14 -28 0 -9 -13 -24 -29 -34 -28 -16 -29 -16 -34 3 -3 11 -1 23 4 26 5 3
9 10 9 17 0 6 -7 2 -15 -9 -14 -18 -21 -94 -9 -94 3 0 25 12 50 26 36 21 43
30 38 48 -3 14 1 29 10 39 12 11 16 36 16 94 l0 79 -70 69 c-68 68 -70 71 -70
120 0 49 -2 52 -67 117 l-68 67 -117 -1 c-91 -1 -118 -4 -122 -15 -4 -9 -16
-13 -33 -11 -22 2 -29 9 -31 30 -5 39 30 56 58 28 17 -17 33 -20 100 -20 47 0
80 4 80 10 0 6 13 10 28 10 33 0 52 16 52 45 0 23 -17 45 -34 45 -6 0 -3 -5 7
-11z m-58 -60 c11 -17 0 -21 -57 -21 -87 0 -93 1 -114 17 -17 13 -10 14 73 15
55 0 94 -4 98 -11z m-110 -78 c-6 -5 -26 -12 -45 -16 -31 -7 -33 -6 -21 9 7 9
27 16 44 16 19 0 27 -4 22 -9z"/>
<path d="M1365 1631 c-8 -15 3 -31 21 -31 9 0 14 7 12 17 -4 20 -24 28 -33 14z"/>
<path d="M1875 1623 c55 -2 103 -7 108 -12 4 -4 3 -20 -2 -34 -9 -24 -8 -27 9
-27 17 0 20 7 20 40 l0 40 -117 -2 -118 -2 100 -3z"/>
<path d="M1579 1512 c86 -82 107 -112 79 -112 -7 0 15 -25 47 -55 35 -31 69
-54 80 -54 20 1 20 1 0 6 -30 7 -105 84 -105 108 0 14 -33 53 -89 108 -49 48
-92 87 -96 87 -4 0 33 -39 84 -88z"/>
<path d="M1133 1555 c-7 -20 2 -29 21 -22 9 4 13 13 10 22 -8 19 -23 19 -31 0z"/>
<path d="M1503 1485 c66 -69 67 -71 67 -125 0 -55 0 -55 70 -124 l70 -68 0
-82 c0 -100 12 -118 52 -79 24 23 28 34 28 83 l0 55 -84 84 c-47 47 -83 88
-81 92 3 4 -2 10 -10 13 -28 10 1 -28 79 -105 l76 -74 0 -58 c0 -33 -4 -56 -9
-52 -5 3 -12 -4 -16 -15 -14 -44 -25 -16 -25 62 l0 82 -69 68 c-68 67 -69 68
-64 113 l6 45 -79 78 c-73 72 -74 73 -11 7z"/>
<path d="M1776 1528 c3 -5 35 -8 71 -7 36 1 59 5 52 9 -20 11 -130 9 -123 -2z"/>
<path d="M1956 1531 c-3 -5 4 -11 17 -15 43 -12 -5 -26 -91 -26 -69 0 -88 4
-109 20 -14 11 -30 16 -37 12 -7 -4 -2 -8 12 -10 13 -2 26 -10 29 -18 8 -21
223 -21 223 0 0 8 3 21 6 30 5 12 0 16 -19 16 -14 0 -28 -4 -31 -9z"/>
<path d="M1348 1499 c-10 -5 -18 -21 -18 -34 0 -13 -11 -32 -25 -43 -13 -11
-22 -22 -19 -25 3 -3 -10 -17 -29 -33 -39 -30 -78 -38 -154 -29 -39 5 -51 10
-46 21 3 8 19 15 37 16 21 1 15 3 -19 7 -27 4 -52 5 -53 4 -2 -1 -1 -15 3 -32
l7 -31 97 0 97 0 59 60 c35 35 60 69 60 81 0 45 64 51 73 7 4 -23 -27 -50 -49
-43 -10 4 -19 2 -19 -3 0 -19 25 -19 53 0 59 42 8 114 -55 77z"/>
<path d="M1732 1473 c2 -10 10 -18 18 -18 8 0 16 8 18 18 2 12 -3 17 -18 17
-15 0 -20 -5 -18 -17z"/>
<path d="M1362 1463 c2 -10 10 -18 18 -18 8 0 16 8 18 18 2 12 -3 17 -18 17
-15 0 -20 -5 -18 -17z"/>
<path d="M1006 1436 c8 -39 8 -40 39 -32 30 8 34 26 5 26 -11 0 -20 5 -20 10
0 6 29 10 67 10 90 0 73 12 -22 14 l-76 2 7 -30z"/>
<path d="M1900 1460 l-75 -6 79 -2 c76 -2 78 -3 63 -20 -22 -24 -21 -32 3 -32
13 0 20 7 20 19 0 11 3 26 6 35 4 10 1 15 -7 14 -8 -1 -48 -4 -89 -8z"/>
<path d="M1770 1445 c-9 -11 -10 -15 -1 -15 8 0 10 -8 6 -20 -15 -48 39 -82
78 -48 l22 19 -26 -16 c-24 -14 -28 -14 -50 4 -20 16 -22 23 -13 38 15 25 42
28 65 7 10 -9 19 -12 19 -6 0 18 -39 34 -66 28 -25 -7 -34 8 -11 17 7 4 8 6 1
6 -6 1 -17 -6 -24 -14z"/>
<path d="M1132 1429 c-13 -5 -28 -7 -32 -4 -5 3 -12 0 -15 -6 -8 -11 37 -8 69
6 11 5 26 3 37 -3 27 -17 38 -14 15 3 -22 17 -41 18 -74 4z"/>
<path d="M1154 1399 c-3 -6 -2 -15 4 -21 13 -13 32 -2 32 18 0 16 -26 19 -36
3z"/>
<path d="M1335 1400 c3 -5 2 -10 -4 -10 -5 0 -30 -21 -56 -46 l-46 -47 -95 5
c-51 3 -94 4 -94 2 0 -1 4 -14 10 -28 11 -29 41 -34 61 -10 11 13 9 14 -14 9
-18 -5 -27 -3 -27 5 0 16 79 5 99 -14 22 -23 5 -56 -30 -56 -16 0 -29 4 -29 9
0 5 -9 11 -20 14 -11 3 -20 2 -20 -1 0 -24 133 -210 150 -212 3 0 5 50 5 110
0 61 -3 110 -7 110 -5 0 -8 -36 -8 -81 l0 -81 -30 32 c-16 18 -30 39 -30 46 0
8 -7 17 -15 20 -8 4 -15 10 -15 16 0 5 5 6 10 3 17 -11 60 23 60 47 0 11 -8
27 -17 34 -16 12 -13 13 23 14 28 0 47 6 59 20 18 20 35 19 35 -2 0 -6 -3 -8
-6 -5 -4 3 -15 -5 -26 -18 -11 -14 -25 -22 -33 -18 -8 3 -15 0 -15 -6 0 -6 6
-11 13 -11 15 0 97 69 97 82 0 6 -7 5 -15 -2 -12 -10 -15 -10 -15 4 0 9 5 16
11 16 6 0 19 10 29 23 15 18 22 20 37 11 37 -23 23 -74 -21 -74 -12 0 -40 -18
-64 -43 l-42 -43 0 -110 c0 -105 1 -112 25 -134 l25 -23 0 124 0 125 54 53
c30 29 59 50 65 47 6 -4 11 -2 11 3 0 6 -4 11 -10 11 -5 0 -10 10 -10 23 0 28
-9 41 -37 56 -27 14 -36 14 -28 1z m2 -135 c-19 -19 -38 -35 -43 -35 -5 0 -2
5 6 11 13 9 13 10 0 6 -8 -2 -14 -11 -12 -21 2 -9 -2 -16 -8 -16 -7 0 -11 -24
-10 -67 2 -113 1 -130 -10 -113 -5 8 -10 54 -10 102 l0 86 39 41 c22 23 49 41
61 41 19 0 18 -3 -13 -35z"/>
<path d="M1804 1399 c-3 -6 -2 -15 4 -21 13 -13 32 -2 32 18 0 16 -26 19 -36
3z"/>
<path d="M1610 1370 c0 -15 5 -20 18 -18 9 2 17 10 17 18 0 8 -8 16 -17 18
-13 2 -18 -3 -18 -18z"/>
<path d="M1945 1379 c-16 -4 -22 -7 -12 -8 9 0 17 -6 17 -12 0 -7 -8 -18 -17
-25 -16 -12 -16 -13 9 -14 21 0 28 6 33 31 8 37 8 37 -30 28z"/>
<path d="M1130 1372 c0 -23 38 -33 67 -18 16 8 24 15 20 16 -5 0 -17 -5 -28
-11 -16 -8 -25 -7 -40 7 -10 9 -19 12 -19 6z"/>
<path d="M1335 1360 c-8 -14 3 -30 21 -30 8 0 14 9 14 20 0 21 -24 28 -35 10z"/>
<path d="M1651 1343 c-12 -13 -2 -26 74 -102 49 -47 83 -78 76 -68 -12 15 -11
17 10 18 21 1 21 2 4 6 -30 7 -46 32 -34 54 10 20 48 25 65 10 5 -5 28 -11 51
-14 39 -5 42 -3 52 26 6 16 10 31 9 32 -2 2 -32 -1 -68 -5 l-65 -7 53 -2 c28
0 52 -5 52 -10 0 -16 -52 -23 -81 -10 -35 14 -79 4 -79 -17 0 -9 -5 -12 -12
-8 -10 6 -10 4 0 -7 6 -7 12 -18 12 -23 0 -6 -27 16 -60 49 -46 46 -57 62 -48
72 15 19 6 24 -11 6z"/>
<path d="M1358 1243 l-47 -48 -2 -123 c-3 -136 -9 -121 74 -171 l37 -23 0 66
c0 60 -3 69 -30 98 -38 40 -41 96 -7 130 43 43 51 63 9 23 -37 -35 -42 -44
-42 -84 0 -34 6 -51 24 -70 23 -24 31 -57 28 -105 -2 -19 -3 -19 -24 1 -13 11
-31 23 -40 26 -16 6 -18 21 -18 119 l0 112 47 48 c26 26 45 48 42 48 -3 0 -26
-21 -51 -47z"/>
<path d="M1122 1243 c2 -10 10 -18 18 -18 8 0 16 8 18 18 2 12 -3 17 -18 17
-15 0 -20 -5 -18 -17z"/>
<path d="M1801 1246 c-12 -14 -5 -26 16 -26 15 0 18 26 4 34 -5 3 -14 0 -20
-8z"/>
<path d="M1427 1192 c-59 -59 -64 -102 -18 -146 23 -22 29 -35 26 -62 -2 -19
1 -34 6 -34 5 0 9 15 9 33 0 22 -10 42 -30 64 -42 45 -40 82 8 131 20 22 44
41 52 44 8 3 10 7 4 11 -6 3 -32 -15 -57 -41z"/>
<path d="M1884 1215 c3 -9 -1 -18 -9 -21 -8 -4 -12 -11 -8 -17 3 -5 -1 -15 -9
-21 -8 -6 -18 -20 -22 -31 -8 -19 -9 -19 -16 5 -5 21 -8 18 -14 -23 -4 -27 -5
-51 -3 -53 7 -7 69 72 102 129 l27 47 -27 0 c-20 0 -26 -4 -21 -15z"/>
<path d="M1466 1154 c-20 -20 -20 -48 -1 -64 11 -9 15 -34 15 -101 0 -87 -13
-124 -26 -73 -5 19 -9 22 -15 12 -19 -30 -10 -54 27 -67 28 -10 42 -10 64 -1
28 11 29 15 23 57 -5 39 -3 47 22 73 29 30 43 70 25 70 -14 0 -31 36 -24 54 8
21 32 28 55 16 22 -12 25 -43 5 -59 -8 -6 -16 -27 -18 -46 -3 -23 -1 -32 6
-25 5 5 10 17 11 27 1 10 7 28 13 40 18 33 15 51 -12 68 -49 32 -97 -26 -58
-68 22 -24 18 -41 -19 -78 -12 -12 -19 -33 -19 -59 0 -22 -4 -40 -10 -40 -6 0
-10 36 -10 89 0 66 4 97 17 119 17 29 17 31 -1 51 -23 25 -49 27 -70 5z m64
-9 c12 -15 5 -55 -11 -55 -5 0 -9 -51 -9 -115 0 -70 -4 -115 -10 -115 -6 0
-10 45 -10 114 0 92 -3 115 -15 120 -8 3 -15 14 -15 24 0 38 46 56 70 27z"/>
<path d="M1482 1123 c4 -21 33 -25 33 -3 0 8 -8 16 -18 18 -14 3 -18 -1 -15
-15z"/>
<path d="M1594 1109 c-10 -17 13 -36 27 -22 12 12 4 33 -11 33 -5 0 -12 -5
-16 -11z"/>
<path d="M1683 975 c-3 -9 -3 -19 1 -22 8 -9 37 18 30 28 -8 14 -24 11 -31 -6z"/>
<path d="M818 534 c-26 -65 -26 -66 -7 -85 13 -13 33 -19 62 -19 37 0 46 -4
55 -25 8 -17 20 -25 36 -25 24 0 24 0 -24 108 -40 89 -52 107 -72 110 -21 3
-27 -5 -50 -64z m67 -20 c20 -49 20 -51 -19 -46 l-34 4 17 39 c9 21 17 39 18
39 2 0 10 -16 18 -36z"/>
<path d="M1020 490 l0 -110 25 0 25 0 0 110 0 110 -25 0 -25 0 0 -110z"/>
<path d="M1323 563 c-8 -21 -30 -71 -48 -110 l-34 -73 25 0 c17 0 27 8 34 25
8 22 15 25 60 25 44 0 52 -3 62 -25 7 -17 19 -25 35 -25 14 0 23 3 21 8 -83
193 -93 212 -116 212 -17 0 -27 -9 -39 -37z m66 -85 c1 -5 -12 -8 -29 -8 -35
0 -34 -3 -14 46 l17 39 13 -35 c7 -19 13 -38 13 -42z"/>
<path d="M1520 490 l0 -110 75 0 c68 0 75 2 75 20 0 18 -7 20 -55 20 l-55 0 0
90 c0 83 -1 90 -20 90 -19 0 -20 -7 -20 -110z"/>
<path d="M1710 490 l0 -110 85 0 c78 0 85 2 85 20 0 18 -7 20 -60 20 -57 0
-60 1 -60 25 0 24 3 25 55 25 48 0 55 2 55 20 0 18 -7 20 -55 20 -52 0 -55 1
-55 25 0 24 3 25 60 25 53 0 60 2 60 20 0 18 -7 20 -85 20 l-85 0 0 -110z"/>
<path d="M1930 490 l0 -110 26 0 c25 0 26 2 21 35 -5 32 -4 35 19 35 16 0 31
-11 46 -35 18 -26 30 -35 52 -35 l28 0 -27 36 -27 35 21 20 c31 29 28 82 -5
108 -21 16 -41 21 -90 21 l-64 0 0 -110z m130 55 c6 -8 9 -23 5 -35 -5 -15
-15 -20 -41 -20 -19 0 -37 -1 -41 -2 -4 -2 -8 14 -8 35 -2 36 -1 37 35 37 21
0 43 -7 50 -15z"/>
<path d="M2140 580 c0 -16 7 -20 35 -20 l35 0 0 -90 c0 -83 1 -90 20 -90 19 0
20 7 20 90 l0 90 35 0 c28 0 35 4 35 20 0 19 -7 20 -90 20 -83 0 -90 -1 -90
-20z"/>
<path d="M644 560 c-46 -18 -67 -77 -43 -122 11 -21 66 -48 99 -48 19 0 20 6
20 90 l0 90 -27 -1 c-16 0 -38 -4 -49 -9z m40 -67 c9 -21 -16 -46 -37 -37 -17
6 -23 35 -10 47 12 13 41 7 47 -10z"/>
<path d="M736 535 c-4 -12 3 -15 29 -15 24 0 35 5 35 15 0 10 -10 15 -29 15
-16 0 -31 -6 -35 -15z"/>
<path d="M540 480 c0 -20 5 -30 15 -30 10 0 15 10 15 30 0 20 -5 30 -15 30
-10 0 -15 -10 -15 -30z"/>
<path d="M1120 481 c0 -18 6 -21 51 -21 43 0 50 3 47 18 -2 13 -15 18 -51 20
-42 3 -47 1 -47 -17z"/>
<path d="M740 436 c0 -11 10 -16 31 -16 38 0 35 24 -4 28 -19 2 -27 -1 -27
-12z"/>
<path d="M785 402 c-33 -7 -42 -22 -13 -22 15 0 30 5 33 11 9 14 4 16 -20 11z"/>
</g>
</svg>
